<svg width="54" height="23" fill="none" xmlns="http://www.w3.org/2000/svg"><g clip-path="url(#a)" fill="#2D2D2D"><path d="M53.324 11.032a.5.5 0 0 1 .352.936c-5.228 1.96-9.475 5.555-12.752 10.797a.5.5 0 1 1-.848-.53c3.39-5.424 7.81-9.163 13.248-11.203Z"/><path d="M53.324 11.968a.5.5 0 0 0 .352-.936C48.448 9.072 44.2 5.478 40.924.235a.5.5 0 0 0-.848.53c3.39 5.424 7.81 9.163 13.248 11.203Z"/><path d="M53.5 12a.5.5 0 0 0 0-1H.5a.5.5 0 0 0 0 1h53Z"/></g><defs><clipPath id="a"><path fill="#fff" d="M0 0h54v23H0z"/></clipPath></defs></svg>