<svg width="54" height="23" fill="none" xmlns="http://www.w3.org/2000/svg"><g opacity=".5" clip-path="url(#a)" fill="#2D2D2D"><path d="M.676 11.032a.5.5 0 0 0-.352.936c5.228 1.96 9.475 5.555 12.752 10.797a.5.5 0 1 0 .848-.53c-3.39-5.424-7.81-9.163-13.248-11.203Z"/><path d="M.676 11.968a.5.5 0 0 1-.352-.936C5.552 9.072 9.8 5.478 13.076.235a.5.5 0 0 1 .848.53C10.534 6.189 6.114 9.928.676 11.968Z"/><path d="M.5 12a.5.5 0 0 1 0-1h53a.5.5 0 0 1 0 1H.5Z"/></g><defs><clipPath id="a"><path fill="#fff" d="M0 0h54v23H0z"/></clipPath></defs></svg>