<svg width="44" height="44" fill="none" xmlns="http://www.w3.org/2000/svg"><rect width="44" height="44" rx="22" fill="#F7F7F5"/><path d="m21.35 17.239.007.006v.001l.66.586.663-.582v-.001h.001l.008-.007.04-.033a11.662 11.662 0 0 1 .81-.607c.555-.38 1.317-.834 2.167-1.162.856-.33 1.745-.51 2.58-.411.806.096 1.622.458 2.373 1.33 1.231 1.43 1.524 2.941 1.242 4.496-.29 1.606-1.206 3.293-2.472 4.94-2.277 2.963-5.495 5.55-7.406 6.966-1.912-1.42-5.152-3.996-7.445-6.954-1.275-1.645-2.195-3.33-2.483-4.934-.278-1.55.023-3.065 1.284-4.509.765-.877 1.59-1.24 2.4-1.337.838-.1 1.726.082 2.576.412.847.327 1.603.78 2.153 1.16a11.31 11.31 0 0 1 .803.607l.02.017.018.016Z" stroke="#2D2D2D" stroke-width="2"/></svg>