<svg width="83" height="24" fill="none" xmlns="http://www.w3.org/2000/svg"><mask id="a" maskUnits="userSpaceOnUse" x="0" y="4" width="83" height="18" fill="#000"><path fill="#fff" d="M0 4h83v18H0z"/><path d="M2.544 8.04c0-.816-.112-1.416-.336-1.8-.224-.4-.672-.6-1.344-.6h-.48v-.48h6.24c1.536 0 2.92.328 4.152.984 1.232.656 1.848 1.928 1.848 3.816 0 1.248-.32 2.208-.96 2.88-.64.672-1.36 1.12-2.16 1.344-.784.224-1.504.336-2.16.336h-2.64V21h-2.16V8.04Zm3.96 5.64c.512 0 1.056-.128 1.632-.384.576-.272 1.064-.696 1.464-1.272.416-.576.624-1.304.624-2.184 0-.88-.208-1.608-.624-2.184-.4-.576-.888-.992-1.464-1.248C7.56 6.136 7.016 6 6.504 6c-.56 0-1.16.08-1.8.24v7.2c.64.16 1.24.24 1.8.24Zm12.6 7.56c-1.088 0-2.008-.256-2.76-.768a4.932 4.932 0 0 1-1.704-2.112c-.384-.896-.576-1.896-.576-3 0-1.088.192-2.08.576-2.976.384-.896.936-1.6 1.656-2.112.736-.528 1.592-.792 2.568-.792 1.616 0 2.816.456 3.6 1.368.8.896 1.2 2.2 1.2 3.912l-.048.96h-7.272c0 1.344.288 2.44.864 3.288.576.848 1.368 1.272 2.376 1.272.752 0 1.384-.16 1.896-.48.528-.32 1.016-.8 1.464-1.44l.48.36c-.528.88-1.144 1.52-1.848 1.92-.704.4-1.528.6-2.472.6Zm2.28-6.48c0-1.408-.208-2.48-.624-3.216-.416-.736-1.048-1.104-1.896-1.104-.48 0-.912.192-1.296.576-.384.368-.688.88-.912 1.536-.208.656-.312 1.392-.312 2.208h5.04Zm7.735 6.48a4.236 4.236 0 0 1-1.56-.312 3.4 3.4 0 0 1-1.368-1.08c-.368-.496-.552-1.152-.552-1.968 0-1.216.56-2.08 1.68-2.592 1.136-.512 2.616-.768 4.44-.768h.72c0-1.568-.216-2.64-.648-3.216-.432-.576-1.056-.864-1.872-.864-.72 0-1.296.152-1.728.456-.432.304-.736.832-.912 1.584h-1.08c0-.544.032-.968.096-1.272.064-.32.232-.616.504-.888.288-.288.76-.496 1.416-.624.672-.144 1.4-.216 2.184-.216 1.296 0 2.32.352 3.072 1.056.752.688 1.128 2.016 1.128 3.984V21h-1.2l-.84-1.08h-.12c-.288.368-.712.68-1.272.936s-1.256.384-2.088.384Zm1.08-1.08c.528 0 .968-.128 1.32-.384.352-.256.672-.608.96-1.056v-3.24h-.72c-1.184 0-2.12.224-2.808.672-.688.432-1.032 1.008-1.032 1.728 0 .736.216 1.304.648 1.704.448.384.992.576 1.632.576Zm12.419 1.08c-1.152 0-2.128-.256-2.928-.768a4.974 4.974 0 0 1-1.776-2.112c-.384-.896-.576-1.896-.576-3s.192-2.096.576-2.976c.4-.896.992-1.6 1.776-2.112.8-.528 1.776-.792 2.928-.792 1.76 0 2.92.28 3.48.84.272.272.44.608.504 1.008.064.384.096 1.088.096 2.112h-.48c-.064-.992-.376-1.736-.936-2.232-.56-.512-1.288-.768-2.184-.768-1.152 0-2.024.456-2.616 1.368-.576.912-.864 2.096-.864 3.552s.288 2.64.864 3.552c.592.912 1.464 1.368 2.616 1.368.816 0 1.488-.152 2.016-.456.528-.32 1.016-.808 1.464-1.464l.48.36c-.528.896-1.152 1.544-1.872 1.944-.72.384-1.576.576-2.568.576Zm6.97-13.2c0-.816-.113-1.416-.337-1.8-.224-.4-.672-.6-1.344-.6h-.48v-.48h2.16c.592 0 1.032.08 1.32.24.304.144.52.416.648.816.128.4.192 1.008.192 1.824v2.64c.336-.336.768-.616 1.296-.84.544-.24 1.152-.36 1.824-.36 1.2 0 2.176.32 2.928.96.768.64 1.152 1.76 1.152 3.36V21h-2.16v-7.2c0-1.12-.256-1.936-.768-2.448-.496-.528-1.12-.792-1.872-.792-.848 0-1.648.424-2.4 1.272V21h-2.16V8.04Zm17.095 13.2c-1.089 0-2.009-.256-2.76-.768a4.932 4.932 0 0 1-1.705-2.112c-.384-.896-.576-1.896-.576-3 0-1.088.192-2.08.576-2.976.384-.896.936-1.6 1.656-2.112.736-.528 1.592-.792 2.568-.792 1.617 0 2.817.456 3.6 1.368.8.896 1.2 2.2 1.2 3.912l-.047.96h-7.272c0 1.344.287 2.44.864 3.288.575.848 1.367 1.272 2.375 1.272.752 0 1.384-.16 1.896-.48.528-.32 1.016-.8 1.464-1.44l.48.36c-.527.88-1.143 1.52-1.847 1.92-.704.4-1.529.6-2.472.6Zm2.28-6.48c0-1.408-.209-2.48-.624-3.216-.416-.736-1.049-1.104-1.897-1.104-.48 0-.911.192-1.295.576-.385.368-.689.88-.913 1.536-.207.656-.311 1.392-.311 2.208h5.04Zm8.814 6.48c-1.84 0-3.08-.32-3.72-.96a1.737 1.737 0 0 1-.504-.912c-.064-.352-.096-.888-.096-1.608h.48c.144.8.488 1.424 1.032 1.872.56.432 1.336.648 2.328.648.88 0 1.536-.152 1.968-.456.448-.304.672-.712.672-1.224 0-.464-.176-.864-.528-1.2-.336-.336-.88-.656-1.632-.96l-1.44-.6c-.96-.384-1.68-.832-2.16-1.344-.48-.512-.72-1.144-.72-1.896 0-.976.368-1.736 1.104-2.28.736-.56 1.688-.84 2.856-.84 1.76 0 2.96.32 3.6.96.272.272.44.576.504.912.064.336.096.872.096 1.608h-.48c-.128-.8-.464-1.416-1.008-1.848-.544-.448-1.288-.672-2.232-.672-.752 0-1.344.16-1.776.48-.416.304-.624.704-.624 1.2 0 .832.64 1.512 1.92 2.04l1.44.6c1.088.448 1.88.928 2.376 1.44.496.496.744 1.136.744 1.92 0 .976-.392 1.744-1.176 2.304-.784.544-1.792.816-3.024.816Z"/></mask><path d="M2.544 8.04c0-.816-.112-1.416-.336-1.8-.224-.4-.672-.6-1.344-.6h-.48v-.48h6.24c1.536 0 2.92.328 4.152.984 1.232.656 1.848 1.928 1.848 3.816 0 1.248-.32 2.208-.96 2.88-.64.672-1.36 1.12-2.16 1.344-.784.224-1.504.336-2.16.336h-2.64V21h-2.16V8.04Zm3.96 5.64c.512 0 1.056-.128 1.632-.384.576-.272 1.064-.696 1.464-1.272.416-.576.624-1.304.624-2.184 0-.88-.208-1.608-.624-2.184-.4-.576-.888-.992-1.464-1.248C7.56 6.136 7.016 6 6.504 6c-.56 0-1.16.08-1.8.24v7.2c.64.16 1.24.24 1.8.24Zm12.6 7.56c-1.088 0-2.008-.256-2.76-.768a4.932 4.932 0 0 1-1.704-2.112c-.384-.896-.576-1.896-.576-3 0-1.088.192-2.08.576-2.976.384-.896.936-1.6 1.656-2.112.736-.528 1.592-.792 2.568-.792 1.616 0 2.816.456 3.6 1.368.8.896 1.2 2.2 1.2 3.912l-.048.96h-7.272c0 1.344.288 2.44.864 3.288.576.848 1.368 1.272 2.376 1.272.752 0 1.384-.16 1.896-.48.528-.32 1.016-.8 1.464-1.44l.48.36c-.528.88-1.144 1.52-1.848 1.92-.704.4-1.528.6-2.472.6Zm2.28-6.48c0-1.408-.208-2.48-.624-3.216-.416-.736-1.048-1.104-1.896-1.104-.48 0-.912.192-1.296.576-.384.368-.688.88-.912 1.536-.208.656-.312 1.392-.312 2.208h5.04Zm7.735 6.48a4.236 4.236 0 0 1-1.56-.312 3.4 3.4 0 0 1-1.368-1.08c-.368-.496-.552-1.152-.552-1.968 0-1.216.56-2.08 1.68-2.592 1.136-.512 2.616-.768 4.44-.768h.72c0-1.568-.216-2.64-.648-3.216-.432-.576-1.056-.864-1.872-.864-.72 0-1.296.152-1.728.456-.432.304-.736.832-.912 1.584h-1.08c0-.544.032-.968.096-1.272.064-.32.232-.616.504-.888.288-.288.76-.496 1.416-.624.672-.144 1.4-.216 2.184-.216 1.296 0 2.32.352 3.072 1.056.752.688 1.128 2.016 1.128 3.984V21h-1.2l-.84-1.08h-.12c-.288.368-.712.68-1.272.936s-1.256.384-2.088.384Zm1.08-1.08c.528 0 .968-.128 1.32-.384.352-.256.672-.608.96-1.056v-3.24h-.72c-1.184 0-2.12.224-2.808.672-.688.432-1.032 1.008-1.032 1.728 0 .736.216 1.304.648 1.704.448.384.992.576 1.632.576Zm12.419 1.08c-1.152 0-2.128-.256-2.928-.768a4.974 4.974 0 0 1-1.776-2.112c-.384-.896-.576-1.896-.576-3s.192-2.096.576-2.976c.4-.896.992-1.6 1.776-2.112.8-.528 1.776-.792 2.928-.792 1.76 0 2.92.28 3.48.84.272.272.44.608.504 1.008.064.384.096 1.088.096 2.112h-.48c-.064-.992-.376-1.736-.936-2.232-.56-.512-1.288-.768-2.184-.768-1.152 0-2.024.456-2.616 1.368-.576.912-.864 2.096-.864 3.552s.288 2.64.864 3.552c.592.912 1.464 1.368 2.616 1.368.816 0 1.488-.152 2.016-.456.528-.32 1.016-.808 1.464-1.464l.48.36c-.528.896-1.152 1.544-1.872 1.944-.72.384-1.576.576-2.568.576Zm6.97-13.2c0-.816-.113-1.416-.337-1.8-.224-.4-.672-.6-1.344-.6h-.48v-.48h2.16c.592 0 1.032.08 1.32.24.304.144.52.416.648.816.128.4.192 1.008.192 1.824v2.64c.336-.336.768-.616 1.296-.84.544-.24 1.152-.36 1.824-.36 1.2 0 2.176.32 2.928.96.768.64 1.152 1.76 1.152 3.36V21h-2.16v-7.2c0-1.12-.256-1.936-.768-2.448-.496-.528-1.12-.792-1.872-.792-.848 0-1.648.424-2.4 1.272V21h-2.16V8.04Zm17.095 13.2c-1.089 0-2.009-.256-2.76-.768a4.932 4.932 0 0 1-1.705-2.112c-.384-.896-.576-1.896-.576-3 0-1.088.192-2.08.576-2.976.384-.896.936-1.6 1.656-2.112.736-.528 1.592-.792 2.568-.792 1.617 0 2.817.456 3.6 1.368.8.896 1.2 2.2 1.2 3.912l-.047.96h-7.272c0 1.344.287 2.44.864 3.288.575.848 1.367 1.272 2.375 1.272.752 0 1.384-.16 1.896-.48.528-.32 1.016-.8 1.464-1.44l.48.36c-.527.88-1.143 1.52-1.847 1.92-.704.4-1.529.6-2.472.6Zm2.28-6.48c0-1.408-.209-2.48-.624-3.216-.416-.736-1.049-1.104-1.897-1.104-.48 0-.911.192-1.295.576-.385.368-.689.88-.913 1.536-.207.656-.311 1.392-.311 2.208h5.04Zm8.814 6.48c-1.84 0-3.08-.32-3.72-.96a1.737 1.737 0 0 1-.504-.912c-.064-.352-.096-.888-.096-1.608h.48c.144.8.488 1.424 1.032 1.872.56.432 1.336.648 2.328.648.88 0 1.536-.152 1.968-.456.448-.304.672-.712.672-1.224 0-.464-.176-.864-.528-1.2-.336-.336-.88-.656-1.632-.96l-1.44-.6c-.96-.384-1.68-.832-2.16-1.344-.48-.512-.72-1.144-.72-1.896 0-.976.368-1.736 1.104-2.28.736-.56 1.688-.84 2.856-.84 1.76 0 2.96.32 3.6.96.272.272.44.576.504.912.064.336.096.872.096 1.608h-.48c-.128-.8-.464-1.416-1.008-1.848-.544-.448-1.288-.672-2.232-.672-.752 0-1.344.16-1.776.48-.416.304-.624.704-.624 1.2 0 .832.64 1.512 1.92 2.04l1.44.6c1.088.448 1.88.928 2.376 1.44.496.496.744 1.136.744 1.92 0 .976-.392 1.744-1.176 2.304-.784.544-1.792.816-3.024.816Z" fill="#2D2D2D"/><path d="m2.208 6.24-.175.098.002.003.173-.101Zm-1.824-.6h-.2v.2h.2v-.2Zm0-.48v-.2h-.2v.2h.2Zm10.392.984.094-.177-.094.177Zm.888 6.696.145.138-.145-.138Zm-2.16 1.344-.054-.193.054.193Zm-4.8.336v-.2h-.2v.2h.2Zm0 6.48v.2h.2V21h-.2Zm-2.16 0h-.2v.2h.2V21Zm5.592-7.704.081.183.004-.002-.085-.181ZM9.6 12.024l-.162-.117-.002.003.164.114Zm0-4.368-.164.114.002.003.162-.117ZM8.136 6.408l-.085.18.004.003.081-.183ZM4.704 6.24l-.049-.194-.151.038v.156h.2Zm0 7.2h-.2v.156l.151.038.049-.194Zm-1.96-5.4c0-.826-.112-1.47-.363-1.9l-.346.2c.197.338.309.894.309 1.7h.4Zm-.362-1.898c-.274-.49-.81-.702-1.518-.702v.4c.637 0 .996.188 1.17.498l.349-.196ZM.864 5.44h-.48v.4h.48v-.4Zm-.28.2v-.48h-.4v.48h.4Zm-.2-.28h6.24v-.4H.384v.4Zm6.24 0c1.507 0 2.858.321 4.058.96l.188-.353C9.606 5.295 8.19 4.96 6.624 4.96v.4Zm4.058.96c1.144.61 1.742 1.796 1.742 3.64h.4c0-1.932-.634-3.29-1.954-3.993l-.188.354Zm1.742 3.64c0 1.215-.311 2.119-.905 2.742l.29.276c.686-.72 1.015-1.737 1.015-3.018h-.4Zm-.905 2.742c-.618.65-1.308 1.076-2.069 1.29l.108.385c.838-.235 1.589-.704 2.25-1.4l-.289-.275Zm-2.07 1.29c-.77.22-1.471.328-2.105.328v.4c.678 0 1.417-.116 2.215-.344l-.11-.384Zm-2.105.328h-2.64v.4h2.64v-.4Zm-2.84.2V21h.4v-6.48h-.4Zm.2 6.28h-2.16v.4h2.16v-.4Zm-1.96.2V8.04h-.4V21h.4Zm3.76-7.12c.546 0 1.117-.136 1.713-.401l-.162-.366c-.556.247-1.073.367-1.551.367v.4Zm1.717-.403c.611-.289 1.125-.737 1.543-1.339l-.328-.228c-.382.55-.844.95-1.385 1.205l.17.362Zm1.541-1.336c.446-.617.662-1.39.662-2.301h-.4c0 .848-.2 1.532-.586 2.067l.324.234Zm.662-2.301c0-.912-.216-1.684-.662-2.301l-.324.234c.386.535.586 1.219.586 2.067h.4Zm-.66-2.298c-.418-.603-.934-1.044-1.547-1.317l-.162.366c.539.24 1 .63 1.38 1.18l.33-.23ZM8.221 6.227c-.596-.281-1.17-.427-1.717-.427v.4c.476 0 .991.126 1.547.389l.17-.362ZM6.504 5.8a7.64 7.64 0 0 0-1.849.246l.098.388A7.242 7.242 0 0 1 6.504 6.2v-.4Zm-2 .44v7.2h.4v-7.2h-.4Zm.151 7.394a7.64 7.64 0 0 0 1.849.246v-.4a7.243 7.243 0 0 1-1.751-.234l-.098.388Zm11.69 6.838-.116.164.003.001.112-.165ZM14.64 18.36l-.184.079.001.001.183-.08Zm0-5.976-.184-.079.184.079Zm1.656-2.112.116.163h.001l-.117-.163Zm6.168.576-.151.13.002.003.15-.133Zm1.2 3.912.2.01v-.01h-.2Zm-.048.96v.2h.19l.01-.19-.2-.01Zm-7.272 0v-.2h-.2v.2h.2Zm.864 3.288.166-.112-.166.112Zm4.272.792-.103-.171-.003.001.106.17Zm1.464-1.44.12-.16-.165-.124-.119.17.164.114Zm.48.36.172.103.093-.155-.145-.108-.12.16Zm-1.848 1.92.1.174-.1-.174Zm-.192-5.88v.2h.2v-.2h-.2Zm-.624-3.216-.174.098.174-.098Zm-3.192-.528.139.144.003-.003-.142-.141Zm-.912 1.536-.189-.065-.001.005.19.06Zm-.312 2.208h-.2v.2h.2v-.2Zm2.76 6.28c-1.055 0-1.934-.248-2.647-.733l-.225.33c.791.539 1.752.803 2.872.803v-.4Zm-2.645-.732a4.732 4.732 0 0 1-1.635-2.028l-.367.16a5.132 5.132 0 0 0 1.772 2.196l.23-.328Zm-1.635-2.027c-.372-.868-.56-1.84-.56-2.921h-.4c0 1.128.197 2.155.592 3.079l.368-.158Zm-.56-2.921c0-1.064.188-2.029.56-2.897l-.367-.158c-.396.924-.593 1.943-.593 3.055h.4Zm.56-2.897c.371-.866.901-1.54 1.588-2.028l-.232-.326c-.752.536-1.326 1.27-1.723 2.196l.367.158Zm1.589-2.028c.7-.502 1.514-.755 2.451-.755v-.4c-1.014 0-1.912.275-2.684.83l.233.325Zm2.451-.755c1.58 0 2.715.444 3.449 1.298l.303-.26c-.834-.97-2.099-1.438-3.752-1.438v.4Zm3.451 1.301c.756.847 1.15 2.095 1.15 3.779h.4c0-1.74-.407-3.1-1.251-4.045l-.299.266Zm1.15 3.769-.048.96.4.02.047-.96-.4-.02Zm.151.77h-7.272v.4h7.272v-.4Zm-7.472.2c0 1.372.294 2.51.899 3.4l.33-.224c-.547-.806-.829-1.86-.829-3.176h-.4Zm.899 3.4c.612.902 1.466 1.36 2.541 1.36v-.4c-.94 0-1.67-.39-2.21-1.184l-.331.224Zm2.541 1.36c.78 0 1.452-.166 2.002-.51l-.212-.34c-.473.296-1.066.45-1.79.45v.4Zm2-.509c.557-.338 1.064-.84 1.524-1.496l-.328-.23c-.436.623-.905 1.082-1.403 1.384l.207.342Zm1.24-1.451.48.36.24-.32-.48-.36-.24.32Zm.429.097c-.515.858-1.108 1.47-1.775 1.85l.197.347c.741-.421 1.38-1.09 1.92-1.991l-.342-.206Zm-1.775 1.85c-.67.38-1.459.573-2.374.573v.4c.973 0 1.832-.206 2.571-.626l-.197-.348Zm.106-5.707c0-1.422-.209-2.535-.65-3.314l-.348.196c.392.693.598 1.724.598 3.118h.4Zm-.65-3.314c-.451-.8-1.15-1.206-2.07-1.206v.4c.776 0 1.342.33 1.722 1.002l.349-.196Zm-2.07-1.206c-.54 0-1.02.218-1.437.635l.283.282c.352-.351.735-.517 1.154-.517v-.4Zm-1.434.632c-.413.395-.732.938-.963 1.615l.379.13c.216-.635.506-1.116.86-1.457l-.276-.288Zm-.964 1.62c-.216.678-.322 1.435-.322 2.268h.4c0-.8.102-1.514.303-2.148l-.381-.12Zm-.122 2.468h5.04v-.4h-5.04v.4Zm11.215 5.968-.078.184.005.002.073-.186Zm-1.368-1.08-.16.12.002.002.158-.122Zm1.128-4.56-.082-.182h-.001l.083.182Zm5.16-.768v.2h.2v-.2h-.2Zm-.648-3.216.16-.12-.16.12Zm-3.6-.408-.115-.164.115.164Zm-.912 1.584v.2h.159l.036-.154-.195-.046Zm-1.08 0h-.2v.2h.2v-.2Zm.096-1.272.196.041v-.002l-.196-.039Zm.504-.888.142.141-.142-.141Zm1.416-.624.038.196h.004l-.042-.196Zm5.256.84-.137.146.002.002.135-.148ZM34.64 21v.2h.2V21h-.2Zm-1.2 0-.158.123.06.077h.098V21Zm-.84-1.08.158-.123-.06-.077h-.098v.2Zm-.12 0v-.2h-.097l-.06.077.157.123Zm-1.272.936.083.182-.083-.182Zm.312-1.08-.117-.162.117.162Zm.96-1.056.168.108.032-.05v-.058h-.2Zm0-3.24h.2v-.2h-.2v.2Zm-3.528.672.107.17.002-.002-.109-.168Zm-.384 3.432-.136.147.006.005.13-.152Zm.552 1.456c-.484 0-.98-.098-1.487-.298l-.146.372a4.435 4.435 0 0 0 1.633.326v-.4Zm-1.482-.296a3.2 3.2 0 0 1-1.288-1.018l-.316.244a3.6 3.6 0 0 0 1.448 1.142l.156-.368Zm-1.285-1.015c-.336-.452-.513-1.062-.513-1.849h-.4c0 .845.19 1.547.591 2.087l.322-.238Zm-.513-1.849c0-.576.133-1.057.388-1.451.256-.394.643-.716 1.175-.96l-.166-.363c-.588.269-1.04.636-1.345 1.105-.304.47-.452 1.03-.452 1.669h.4Zm1.562-2.41c1.101-.496 2.55-.75 4.358-.75v-.4c-1.84 0-3.351.258-4.522.786l.164.364Zm4.358-.75h.72v-.4h-.72v.4Zm.92-.2c0-.792-.054-1.466-.166-2.02-.11-.55-.281-.995-.522-1.316l-.32.24c.191.255.345.635.45 1.155.105.52.158 1.165.158 1.941h.4Zm-.688-3.336c-.475-.634-1.163-.944-2.032-.944v.4c.763 0 1.323.266 1.712.784l.32-.24Zm-2.032-.944c-.746 0-1.367.158-1.843.492l.23.328c.388-.274.92-.42 1.613-.42v-.4Zm-1.843.492c-.487.343-.81.924-.992 1.702l.39.092c.17-.726.455-1.201.832-1.466l-.23-.328Zm-.797 1.548h-1.08v.4h1.08v-.4Zm-.88.2c0-.539.032-.947.092-1.23l-.392-.083c-.068.324-.1.764-.1 1.313h.4Zm.092-1.233c.055-.275.2-.536.45-.786l-.283-.282c-.295.294-.486.625-.559.99l.392.078Zm.45-.786c.247-.247.673-.444 1.312-.569l-.076-.392c-.673.13-1.19.35-1.52.679l.284.282Zm1.316-.57c.656-.14 1.37-.211 2.142-.211v-.4c-.796 0-1.538.073-2.226.22l.084.392Zm2.142-.211c1.259 0 2.23.341 2.935 1.002l.274-.292c-.798-.747-1.876-1.11-3.209-1.11v.4Zm2.937 1.004c.686.627 1.063 1.877 1.063 3.836h.4c0-1.977-.374-3.383-1.193-4.132l-.27.296Zm1.063 3.836V21h.4v-6.48h-.4Zm.2 6.28h-1.2v.4h1.2v-.4Zm-1.042.077-.84-1.08-.316.246.84 1.08.316-.246Zm-.998-1.157h-.12v.4h.12v-.4Zm-.277.077c-.263.336-.658.63-1.198.877l.166.364c.58-.265 1.034-.595 1.347-.995l-.315-.246Zm-1.198.877c-.526.24-1.192.366-2.005.366v.4c.851 0 1.578-.13 2.171-.402l-.166-.364Zm-.925-.314c.561 0 1.045-.136 1.438-.422l-.236-.324c-.31.226-.707.346-1.202.346v.4Zm1.438-.422c.376-.274.712-.645 1.01-1.11l-.336-.216c-.278.432-.581.764-.91 1.002l.236.324Zm1.042-1.218v-3.24h-.4v3.24h.4Zm-.2-3.44h-.72v.4h.72v-.4Zm-.72 0c-1.206 0-2.185.228-2.917.704l.218.336c.644-.42 1.538-.64 2.7-.64v-.4Zm-2.914.703c-.738.463-1.126 1.098-1.126 1.897h.4c0-.641.3-1.158.939-1.559l-.213-.338Zm-1.126 1.897c0 .777.23 1.404.712 1.85l.272-.293c-.381-.353-.584-.862-.584-1.557h-.4Zm.718 1.856c.487.418 1.079.624 1.762.624v-.4c-.597 0-1.093-.178-1.502-.528l-.26.304Zm11.253.736-.112.166.004.002.108-.168Zm-1.776-2.112-.184.079.002.004.182-.083Zm0-5.976-.183-.082v.002l.183.08Zm1.776-2.112.11.168v-.001l-.11-.167Zm6.912 1.056-.198.032.198-.032Zm.096 2.112v.2h.2v-.2h-.2Zm-.48 0-.2.013.012.187h.188v-.2Zm-.936-2.232-.135.148.002.002.133-.15Zm-4.8.6-.168-.109-.001.002.169.107Zm0 7.104-.17.107.002.002.168-.109Zm4.632.912.1.173.004-.002-.104-.171Zm1.464-1.464.12-.16-.167-.125-.118.172.165.113Zm.48.36.172.102.091-.155-.143-.107-.12.16Zm-1.872 1.944.094.176.003-.001-.097-.175Zm-2.568.376c-1.122 0-2.059-.25-2.82-.736l-.216.337c.838.536 1.854.799 3.036.799v-.4Zm-2.817-.734a4.773 4.773 0 0 1-1.705-2.029l-.364.166a5.176 5.176 0 0 0 1.846 2.195l.223-.332Zm-1.703-2.025c-.372-.868-.56-1.84-.56-2.921h-.4c0 1.128.196 2.155.592 3.079l.368-.158Zm-.56-2.921c0-1.08.188-2.045.56-2.896l-.367-.16c-.397.909-.593 1.929-.593 3.056h.4Zm.558-2.894c.386-.863.953-1.537 1.703-2.026l-.218-.335c-.818.534-1.435 1.268-1.85 2.197l.365.164Zm1.704-2.027c.761-.502 1.697-.759 2.818-.759v-.4c-1.183 0-2.2.271-3.038.825l.22.334Zm2.818-.759c.87 0 1.584.07 2.143.204.56.136.951.333 1.195.577l.283-.282c-.316-.316-.785-.539-1.384-.683-.601-.145-1.348-.216-2.237-.216v.4Zm3.338.781c.241.241.39.538.448.899l.395-.064a1.985 1.985 0 0 0-.56-1.117l-.283.282Zm.448.9c.061.365.094 1.054.094 2.079h.4c0-1.023-.032-1.742-.099-2.145l-.395.066Zm.294 1.879h-.48v.4h.48v-.4Zm-.28.187c-.067-1.027-.392-1.827-1.004-2.369l-.265.3c.509.45.807 1.138.87 2.095l.398-.026Zm-1.001-2.367c-.604-.551-1.383-.82-2.32-.82v.4c.856 0 1.533.243 2.05.716l.27-.296Zm-2.32-.82c-1.214 0-2.151.486-2.783 1.46l.336.217c.552-.851 1.359-1.277 2.448-1.277v-.4Zm-2.784 1.461c-.602.954-.895 2.178-.895 3.659h.4c0-1.431.283-2.574.833-3.445l-.338-.214Zm-.895 3.659c0 1.481.293 2.706.895 3.659l.338-.214c-.55-.87-.833-2.014-.833-3.445h-.4Zm.896 3.66c.632.974 1.569 1.46 2.784 1.46v-.4c-1.09 0-1.896-.426-2.448-1.277l-.336.218Zm2.784 1.46c.84 0 1.549-.156 2.116-.483l-.2-.346c-.489.281-1.124.429-1.916.429v.4Zm2.12-.485c.558-.338 1.065-.85 1.525-1.522l-.33-.226c-.437.64-.905 1.104-1.403 1.406l.208.342Zm1.24-1.475.48.36.24-.32-.48-.36-.24.32Zm.428.099c-.515.873-1.116 1.491-1.797 1.87l.194.35c.758-.421 1.406-1.099 1.947-2.017l-.344-.203Zm-1.794 1.869c-.686.365-1.508.552-2.474.552v.4c1.018 0 1.907-.197 2.662-.6l-.188-.352Zm4.16-14.248-.175.098.002.003.172-.101Zm-1.825-.6h-.2v.2h.2v-.2Zm0-.48v-.2h-.2v.2h.2Zm3.48.24-.097.175.012.006.085-.181Zm.648.816.19-.061-.19.061Zm.192 4.464h-.2v.483l.342-.342-.142-.141Zm1.296-.84.078.184.003-.001-.08-.183Zm4.752.6-.13.152.002.002.128-.154ZM58.947 21v.2h.2V21h-.2Zm-2.16 0h-.2v.2h.2V21Zm-.768-9.648-.145.137.004.004.141-.141Zm-4.272.48-.15-.133-.05.057v.076h.2Zm0 9.168v.2h.2V21h-.2Zm-2.16 0h-.2v.2h.2V21Zm.2-12.96c0-.826-.112-1.47-.363-1.9l-.345.2c.196.338.308.894.308 1.7h.4Zm-.361-1.898c-.275-.49-.812-.702-1.519-.702v.4c.637 0 .996.188 1.17.498l.349-.196Zm-1.519-.702h-.48v.4h.48v-.4Zm-.28.2v-.48h-.4v.48h.4Zm-.2-.28h2.16v-.4h-2.16v.4Zm2.16 0c.582 0 .98.08 1.223.215l.194-.35c-.332-.185-.814-.265-1.417-.265v.4Zm1.235.22c.242.115.427.336.543.697l.38-.122c-.14-.439-.386-.762-.752-.936l-.171.362Zm.543.697c.118.37.182.952.182 1.763h.4c0-.821-.063-1.454-.201-1.885l-.381.122Zm.182 1.763v2.64h.4V8.04h-.4Zm.342 2.781c.314-.314.723-.58 1.232-.797l-.156-.368c-.547.232-1.002.525-1.359.883l.283.282Zm1.235-.798c.516-.227 1.096-.343 1.743-.343v-.4c-.696 0-1.332.124-1.904.377l.161.366Zm1.743-.343c1.164 0 2.09.31 2.799.912l.259-.304c-.795-.677-1.82-1.008-3.058-1.008v.4Zm2.8.914c.701.584 1.08 1.63 1.08 3.206h.4c0-1.624-.389-2.818-1.224-3.514l-.256.308Zm1.08 3.206V21h.4v-7.2h-.4Zm.2 7h-2.16v.4h2.16v-.4Zm-1.96.2v-7.2h-.4V21h.4Zm0-7.2c0-1.145-.26-2.024-.826-2.59l-.283.283c.458.459.71 1.212.71 2.307h.4Zm-.822-2.585c-.535-.57-1.213-.855-2.018-.855v.4c.7 0 1.27.243 1.727.729l.291-.274Zm-2.018-.855c-.922 0-1.773.464-2.55 1.34l.3.265c.727-.82 1.477-1.205 2.25-1.205v-.4Zm-2.6 1.472V21h.4v-9.168h-.4Zm.2 8.968h-2.16v.4h2.16v-.4Zm-1.96.2V8.04h-.4V21h.4Zm14.136-.528-.115.164.002.001.112-.165Zm-1.705-2.112-.183.079v.001l.184-.08Zm0-5.976-.183-.079.184.079Zm1.656-2.112.116.163h.001l-.117-.163Zm6.169.576-.152.13.002.003.15-.133Zm1.2 3.912.2.01v-.01h-.2Zm-.048.96v.2h.19l.01-.19-.2-.01Zm-7.272 0v-.2h-.2v.2h.2Zm.864 3.288.165-.112-.165.112Zm4.271.792-.103-.171-.002.001.105.17Zm1.464-1.44.12-.16-.165-.124-.118.17.163.114Zm.48.36.172.103.093-.155-.144-.108-.12.16Zm-1.847 1.92.098.174-.099-.174Zm-.192-5.88v.2h.2v-.2h-.2Zm-.624-3.216-.175.098.174-.098Zm-3.192-.528.138.144.003-.003-.141-.141Zm-.913 1.536-.189-.065-.001.005.19.06Zm-.311 2.208h-.2v.2h.2v-.2Zm2.76 6.28c-1.056 0-1.935-.248-2.648-.733l-.225.33c.791.539 1.752.803 2.873.803v-.4Zm-2.646-.732a4.733 4.733 0 0 1-1.635-2.028l-.367.16a5.132 5.132 0 0 0 1.773 2.196l.23-.328Zm-1.635-2.027c-.372-.868-.56-1.84-.56-2.921h-.4c0 1.128.197 2.155.593 3.079l.367-.158Zm-.56-2.921c0-1.064.188-2.029.56-2.897l-.367-.158c-.396.924-.592 1.943-.592 3.055h.4Zm.56-2.897c.371-.866.901-1.54 1.588-2.028l-.231-.326c-.753.536-1.327 1.27-1.724 2.196l.367.158Zm1.59-2.028c.698-.502 1.513-.755 2.45-.755v-.4c-1.014 0-1.911.275-2.684.83l.233.325Zm2.45-.755c1.58 0 2.715.444 3.449 1.298l.303-.26c-.834-.97-2.098-1.438-3.752-1.438v.4Zm3.451 1.301c.756.847 1.15 2.095 1.15 3.779h.4c0-1.74-.407-3.1-1.251-4.045l-.299.266Zm1.15 3.769-.048.96.4.02.047-.96-.4-.02Zm.151.77h-7.272v.4h7.273v-.4Zm-7.472.2c0 1.372.294 2.51.9 3.4l.33-.224c-.547-.806-.83-1.86-.83-3.176h-.4Zm.9 3.4c.612.902 1.465 1.36 2.54 1.36v-.4c-.94 0-1.67-.39-2.21-1.184l-.33.224Zm2.54 1.36c.78 0 1.452-.166 2.002-.51l-.212-.34c-.473.296-1.066.45-1.79.45v.4Zm2-.509c.557-.338 1.064-.84 1.524-1.496l-.327-.23c-.436.623-.905 1.082-1.404 1.384l.207.342Zm1.24-1.451.48.36.24-.32-.48-.36-.24.32Zm.429.097c-.515.858-1.108 1.47-1.775 1.85l.197.347c.741-.421 1.38-1.09 1.921-1.991l-.343-.206Zm-1.775 1.85c-.67.38-1.458.573-2.373.573v.4c.972 0 1.831-.206 2.57-.626l-.197-.348Zm.106-5.707c0-1.422-.209-2.535-.65-3.314l-.348.196c.392.693.599 1.724.599 3.118h.4Zm-.65-3.314c-.451-.8-1.15-1.206-2.07-1.206v.4c.777 0 1.342.33 1.722 1.002l.349-.196Zm-2.07-1.206c-.54 0-1.02.218-1.437.635l.283.282c.352-.351.735-.517 1.154-.517v-.4Zm-1.434.632c-.413.395-.731.938-.963 1.615l.379.13c.216-.635.506-1.116.86-1.457l-.276-.288Zm-.964 1.62c-.215.678-.322 1.435-.322 2.268h.4c0-.8.102-1.514.303-2.148l-.381-.12Zm-.121 2.468h5.04v-.4h-5.04v.4Zm10.134 5.32-.141.141.141-.141Zm-.504-.912-.197.036v.001l.197-.037Zm-.096-1.608v-.2h-.2v.2h.2Zm.48 0 .197-.035-.03-.165h-.167v.2Zm1.032 1.872-.127.154.005.004.122-.158Zm4.296.192-.112-.166-.003.002.115.164Zm.144-2.424-.141.142.003.003.138-.145Zm-1.632-.96-.077.185h.002l.075-.185Zm-1.44-.6.077-.185h-.002l-.075.185Zm-2.16-1.344.146-.137-.146.137Zm.384-4.176.12.16h.001l-.12-.16Zm6.456.12.142-.141-.142.141Zm.6 2.52v.2h.2v-.2h-.2Zm-.48 0-.197.032.027.168h.17v-.2Zm-1.008-1.848-.127.154.003.003.124-.157Zm-4.008-.192.118.162.001-.001-.119-.161Zm1.296 3.24.077-.185-.077.185Zm1.44.6-.077.185h.001l.076-.185Zm2.376 1.44-.143.14.002.001.141-.141Zm-.432 4.224.114.164.002-.001-.116-.163Zm-3.024.616c-1.834 0-3-.323-3.578-.901l-.283.282c.701.702 2.015 1.019 3.861 1.019v-.4Zm-3.578-.901a1.538 1.538 0 0 1-.45-.808l-.392.074c.072.38.262.72.559 1.016l.283-.282Zm-.449-.807c-.06-.333-.093-.855-.093-1.572h-.4c0 .723.032 1.273.1 1.644l.393-.072Zm-.293-1.372h.48v-.4h-.48v.4Zm.283-.165c.151.84.516 1.509 1.102 1.991l.254-.308c-.502-.414-.825-.993-.962-1.753l-.394.07Zm1.107 1.995c.607.468 1.431.69 2.45.69v-.4c-.965 0-1.692-.21-2.206-.606l-.244.316Zm2.45.69c.897 0 1.602-.154 2.083-.492l-.23-.328c-.382.27-.99.42-1.853.42v.4Zm2.08-.49c.5-.34.76-.807.76-1.39h-.4c0 .441-.187.79-.584 1.058l.224.331Zm.76-1.39c0-.522-.2-.973-.59-1.345l-.276.29c.315.3.466.649.466 1.055h.4Zm-.586-1.341c-.364-.364-.937-.697-1.699-1.004l-.15.37c.743.3 1.258.608 1.566.916l.283-.282Zm-1.697-1.004-1.44-.6-.154.37 1.44.6.154-.37Zm-1.442-.6c-.945-.378-1.636-.813-2.089-1.296l-.292.274c.507.54 1.257 1.003 2.232 1.393l.148-.372Zm-2.089-1.296c-.442-.472-.666-1.054-.666-1.759h-.4c0 .799.257 1.48.774 2.033l.292-.274Zm-.666-1.759c0-.918.342-1.616 1.023-2.12l-.238-.32c-.79.584-1.185 1.405-1.185 2.44h.4Zm1.025-2.12c.693-.528 1.6-.8 2.735-.8v-.4c-1.2 0-2.198.288-2.977.88l.242.32Zm2.735-.8c1.751 0 2.879.322 3.459.901l.283-.282c-.7-.7-1.973-1.019-3.742-1.019v.4Zm3.459.901c.247.248.393.517.449.808l.393-.074a1.937 1.937 0 0 0-.56-1.016l-.282.282Zm.449.808c.06.317.092.837.092 1.571h.4c0-.738-.031-1.29-.1-1.645l-.392.074Zm.292 1.371h-.48v.4h.48v-.4Zm-.282.168c-.135-.84-.492-1.504-1.081-1.973l-.25.314c.5.395.814.963.936 1.723l.395-.064Zm-1.079-1.97c-.59-.487-1.384-.718-2.359-.718v.4c.914 0 1.607.217 2.105.626l.254-.308Zm-2.359-.718c-.778 0-1.417.165-1.895.52l.238.32c.386-.285.931-.44 1.657-.44v-.4Zm-1.894.518c-.465.34-.706.8-.706 1.362h.4c0-.43.175-.77.542-1.038l-.236-.324Zm-.706 1.362c0 .96.744 1.689 2.044 2.225l.153-.37c-1.26-.52-1.797-1.15-1.797-1.855h-.4Zm2.043 2.225 1.44.6.154-.37-1.44-.6-.154.37Zm1.441.6c1.077.443 1.84.91 2.309 1.394l.287-.278c-.524-.54-1.345-1.033-2.444-1.486l-.152.37Zm2.31 1.396c.455.454.686 1.041.686 1.779h.4c0-.83-.264-1.523-.802-2.061l-.283.282Zm.686 1.779c0 .912-.361 1.62-1.092 2.141l.233.326c.837-.598 1.26-1.427 1.26-2.467h-.4Zm-1.09 2.14c-.742.514-1.707.78-2.91.78v.4c1.261 0 2.312-.279 3.138-.852l-.228-.328Z" fill="#2D2D2D" mask="url(#a)"/></svg>